<svg width="713" height="469" viewBox="0 0 713 469" fill="none" xmlns="http://www.w3.org/2000/svg">
<g id="sound-bars">
<path id="Vector" d="M18.4 22.6935C8.05 22.6935 0 27.9887 0 34.7968V335.108C0 341.916 8.05 347.211 18.4 347.211C28.75 347.211 36.8 341.916 36.8 335.108V34.7968C36.8 27.9887 27.6 22.6935 18.4 22.6935Z" fill="#0EE8DB"/>
<path id="Vector_2" d="M102.35 84.7226C92 84.7226 83.95 90.0177 83.95 96.8258V335.108C83.95 341.916 92 347.211 102.35 347.211C112.7 347.211 120.75 341.916 120.75 335.108V96.8258C120.75 90.0177 112.7 84.7226 102.35 84.7226Z" fill="#7C2EBA"/>
<path id="Vector_3" d="M187.45 134.648C177.1 134.648 169.05 139.944 169.05 146.752V335.865C169.05 342.673 177.1 347.968 187.45 347.968C197.8 347.968 205.85 342.673 205.85 335.865V146.752C205.85 139.944 197.8 134.648 187.45 134.648Z" fill="#0EE8DB"/>
<path id="Vector_4" d="M271.4 237.526C261.05 237.526 253 242.821 253 249.629V335.108C253 341.916 261.05 347.211 271.4 347.211C281.75 347.211 289.8 341.916 289.8 335.108V249.629C289.8 242.821 281.75 237.526 271.4 237.526Z" fill="#7C2EBA"/>
<path id="Vector_5" d="M356.5 187.6C346.15 187.6 338.1 192.895 338.1 199.703V335.108C338.1 341.916 346.15 347.211 356.5 347.211C366.85 347.211 374.9 341.916 374.9 335.108V199.703C374.9 192.895 366.85 187.6 356.5 187.6Z" fill="#0EE8DB"/>
<path id="Vector_6" d="M441.6 148.265C431.25 148.265 423.2 153.56 423.2 160.368V335.108C423.2 341.916 431.25 347.211 441.6 347.211C451.95 347.211 460 341.916 460 335.108V160.368C458.85 153.56 450.8 148.265 441.6 148.265Z" fill="#7C2EBA"/>
<path id="Vector_7" d="M525.55 56.7339C515.2 56.7339 507.15 62.029 507.15 68.8371V335.108C507.15 341.916 515.2 347.211 525.55 347.211C535.9 347.211 543.95 341.916 543.95 335.108V68.8371C543.95 62.029 535.9 56.7339 525.55 56.7339Z" fill="#0EE8DB"/>
<path id="Vector_8" d="M610.65 27.2323C600.3 27.2323 592.25 32.5274 592.25 39.3355V335.108C592.25 341.916 600.3 347.211 610.65 347.211C621 347.211 629.05 341.916 629.05 335.108V38.579C627.9 32.5274 619.85 27.2323 610.65 27.2323Z" fill="#7C2EBA"/>
<path id="Vector_9" d="M694.6 152.047C684.25 152.047 676.2 157.342 676.2 164.15V335.108C676.2 341.916 684.25 347.211 694.6 347.211C704.95 347.211 713 341.916 713 335.108V164.15C713 157.342 704.95 152.047 694.6 152.047Z" fill="#0EE8DB"/>
<g id="Group1">
<path id="Vector_10" d="M0 338.134V434.203C0 441.011 8.05 446.306 18.4 446.306C28.75 446.306 36.8 441.011 36.8 434.203V338.134H0Z" fill="#3F4A4C"/>
<path id="Vector_11" d="M169.05 338.134V434.203C169.05 441.011 177.1 446.306 187.45 446.306C197.8 446.306 205.85 441.011 205.85 434.203V338.134H169.05Z" fill="#3F4A4C"/>
</g>
<path id="Vector_12" d="M85.1 338.134V434.203C85.1 441.011 93.15 446.306 103.5 446.306C113.85 446.306 121.9 441.011 121.9 434.203V338.134H85.1Z" fill="#717B7C"/>
<path id="Vector_13" d="M254.15 338.134V434.203C254.15 441.011 262.2 446.306 272.55 446.306C282.9 446.306 290.95 441.011 290.95 434.203V338.134H254.15Z" fill="#717B7C"/>
<path id="Vector_14" d="M338.1 338.134V434.203C338.1 441.011 346.15 446.306 356.5 446.306C366.85 446.306 374.9 441.011 374.9 434.203V338.134H338.1Z" fill="#3F4A4C"/>
<path id="Vector_15" d="M423.2 338.134V434.203C423.2 441.011 431.25 446.306 441.6 446.306C451.95 446.306 460 441.011 460 434.203V338.134H423.2Z" fill="#717B7C"/>
<path id="Vector_16" d="M507.15 338.134V434.203C507.15 441.011 515.2 446.306 525.55 446.306C535.9 446.306 543.95 441.011 543.95 434.203V338.134H507.15Z" fill="#3F4A4C"/>
<path id="Vector_17" d="M592.25 338.134V434.203C592.25 441.011 600.3 446.306 610.65 446.306C621 446.306 629.05 441.011 629.05 434.203V338.134H592.25Z" fill="#717B7C"/>
<path id="Vector_18" d="M676.2 338.134V434.203C676.2 441.011 684.25 446.306 694.6 446.306C704.95 446.306 713 441.011 713 434.203V338.134H676.2Z" fill="#3F4A4C"/>
</g>
</svg>
